<svg xmlns="http://www.w3.org/2000/svg" viewBox="0 0 536 532.4"><defs><style>.cls-1{fill:#333;}</style></defs><title>pelefant</title><g id="Layer_2" data-name="Layer 2"><g id="Layer_1-2" data-name="Layer 1"><path class="cls-1" d="M483.14,52.86A178.72,178.72,0,0,0,356,0H245C178.28,0,124,52.09,124,116.12V267.4a47,47,0,0,1-94,0H0a77,77,0,0,0,154,0v-77q7.71.68,15.3.68c61.64,0,115.78-33,132.9-83.22C312.38,78,306.85,49.63,299.7,30H356c82.71,0,150,67.29,150,150V455.4a47,47,0,0,1-94,0V396H382v59.4a77,77,0,0,0,154,0V180A178.72,178.72,0,0,0,483.14,52.86ZM273.8,98.16c-14.31,42-64.57,67.94-119.8,62.06v-44.1C154,68.63,194.82,30,245,30h22.21C274,44.24,283.12,70.84,273.8,98.16Z"/><circle class="cls-1" cx="218.5" cy="99.5" r="18.5"/></g></g></svg>