<svg xmlns="http://www.w3.org/2000/svg" viewBox="0 0 412.01 527.4"><defs><style>.cls-1{fill:#c69c6d;}</style></defs><title>Asset 1</title><g id="Layer_2" data-name="Layer 2"><g id="Layer_1-2" data-name="Layer 1"><circle cx="94.5" cy="99.5" r="18.5"/><path class="cls-1" d="M360.25,49.34c-32.5-31.13-78-48.65-128-49.34H121C54.28,0,0,52.09,0,116.12V193H26.26a175.37,175.37,0,0,0,19,1.06c61.64,0,115.78-33,132.9-83.22,10.71-31.42,4-61.17-3.63-80.84H231.9C321.26,31.27,383,92.87,382,179.83V450.4a47,47,0,0,1-94,0V391H258v59.4a77,77,0,0,0,154,0V180.09C412.57,127.52,394.68,82.31,360.25,49.34ZM149.8,101.16c-14.31,42-64.57,67.94-119.8,62.06v-47.1C30,68.63,70.82,30,121,30h21.1C149,44.26,159.2,73.6,149.8,101.16Z"/></g></g></svg>